<svg width="180" height="180" viewBox="0 0 180 180" fill="none" xmlns="http://www.w3.org/2000/svg">
<path d="M90 2.5C138.325 2.5 177.5 41.6751 177.5 90C177.5 138.325 138.325 177.5 90 177.5C41.6751 177.5 2.5 138.325 2.5 90C2.5 41.6751 41.6751 2.5 90 2.5Z" stroke="#EE0712" stroke-width="5"/>
<path d="M78.1054 27.3887L90.0738 48.231L78.1054 69.0734H54.1685L42.2 48.231L54.1685 27.3887L78.1054 27.3887Z" fill="#F5070C"/>
<path d="M78.1054 111.367L90.0738 132.209L78.1054 153.052H54.1685L42.2 132.209L54.1685 111.367H78.1054Z" fill="#F5070C"/>
<path d="M54.1664 69.4016L66.1349 90.2439L54.1664 111.086H30.2296L18.2611 90.2439L30.2296 69.4016H54.1664Z" fill="#F5070C"/>
<path d="M126.168 27.3887L138.137 48.231L126.168 69.0734H102.232L90.2631 48.231L102.232 27.3887L126.168 27.3887Z" fill="#F5070C"/>
<path d="M126.168 111.367L138.137 132.209L126.168 153.052H102.232L90.2631 132.209L102.232 111.367H126.168Z" fill="#F5070C"/>
<path d="M102.23 69.4016L114.198 90.2439L102.23 111.086H78.2927L66.3242 90.2439L78.2927 69.4016H102.23Z" fill="#F5070C"/>
<path d="M150.293 69.4016L162.261 90.2439L150.293 111.086H126.356L114.387 90.2439L126.356 69.4016H150.293Z" fill="#F5070C"/>
</svg>
