<svg width="34" height="34" viewBox="0 0 34 34" fill="none"
    xmlns="http://www.w3.org/2000/svg">
    <path d="M19.4457 12.2291L21.9152 16.974L19.4457 21.7189L14.5068 21.7189L12.0373 16.974L14.5068 12.2291L19.4457 12.2291Z" fill="#0A0A0A"/>
    <path d="M29.7226 12.2291L32.1921 16.974L29.7226 21.7189L24.7836 21.7189L22.3141 16.974L24.7836 12.2291L29.7226 12.2291Z" fill="#0A0A0A"/>
    <path d="M24.3847 2.73946L26.8542 7.48436L24.3847 12.2292L19.4457 12.2292L16.9762 7.48436L19.4457 2.73946L24.3847 2.73946Z" fill="#0A0A0A"/>
    <path d="M24.4721 21.7707L26.9416 26.5156L24.4721 31.2605L19.5331 31.2605L17.0637 26.5156L19.5331 21.7707L24.4721 21.7707Z" fill="#0A0A0A"/>
    <path d="M9.21623 12.2291L11.6857 16.974L9.21623 21.7189L4.27727 21.7189L1.80779 16.974L4.27727 12.2291L9.21623 12.2291Z" fill="#0A0A0A"/>
    <path d="M14.3329 2.73946L16.8024 7.48436L14.3329 12.2292L9.39397 12.2292L6.92449 7.48436L9.39397 2.73946L14.3329 2.73946Z" fill="#0A0A0A"/>
    <path d="M14.4203 21.7707L16.8898 26.5156L14.4203 31.2605L9.48137 31.2605L7.01189 26.5156L9.48137 21.7707L14.4203 21.7707Z" fill="#0A0A0A"/>
</svg>
    