<svg width="46" height="41" viewBox="0 0 46 41" fill="none"
    xmlns="http://www.w3.org/2000/svg">
    <path d="M26.5404 14.7896L29.7865 20.412L26.5404 26.0344L20.0482 26.0344L16.8021 20.412L20.0482 14.7896L26.5404 14.7896Z" fill="white"/>
    <path d="M40.0492 14.7896L43.2953 20.412L40.0492 26.0344L33.557 26.0344L30.3109 20.412L33.557 14.7896L40.0492 14.7896Z" fill="white"/>
    <path d="M33.0326 3.5448L36.2787 9.16721L33.0326 14.7896L26.5404 14.7896L23.2943 9.16721L26.5404 3.5448L33.0326 3.5448Z" fill="white"/>
    <path d="M33.1468 26.0957L36.3929 31.7181L33.1468 37.3405L26.6546 37.3405L23.4085 31.7181L26.6546 26.0957L33.1468 26.0957Z" fill="white"/>
    <path d="M13.0936 14.7896L16.3397 20.412L13.0936 26.0344L6.6014 26.0344L3.3553 20.412L6.6014 14.7896L13.0936 14.7896Z" fill="white"/>
    <path d="M19.8197 3.5448L23.0658 9.16721L19.8197 14.7896L13.3275 14.7896L10.0814 9.16721L13.3275 3.5448L19.8197 3.5448Z" fill="white"/>
    <path d="M19.9339 26.0957L23.18 31.7181L19.9339 37.3405L13.4417 37.3405L10.1956 31.7181L13.4417 26.0957L19.9339 26.0957Z" fill="white"/>
</svg>
    