<svg width="35" height="35" viewBox="0 0 35 35" fill="none"
    xmlns="http://www.w3.org/2000/svg">
    <path d="M20.4247 12.5278L22.8942 17.2727L20.4247 22.0176L15.4858 22.0176L13.0163 17.2727L15.4858 12.5278L20.4247 12.5278Z" fill="white"/>
    <path d="M30.7016 12.5278L33.1711 17.2727L30.7016 22.0176L25.7626 22.0176L23.2931 17.2727L25.7626 12.5278L30.7016 12.5278Z" fill="white"/>
    <path d="M25.3637 3.03817L27.8332 7.78306L25.3637 12.528L20.4247 12.528L17.9553 7.78306L20.4247 3.03817L25.3637 3.03817Z" fill="white"/>
    <path d="M25.4511 22.0694L27.9206 26.8143L25.4511 31.5592L20.5121 31.5592L18.0427 26.8143L20.5121 22.0694L25.4511 22.0694Z" fill="white"/>
    <path d="M10.1952 12.5278L12.6647 17.2727L10.1952 22.0176L5.25627 22.0176L2.7868 17.2727L5.25627 12.5278L10.1952 12.5278Z" fill="white"/>
    <path d="M15.3119 3.03817L17.7814 7.78306L15.3119 12.528L10.373 12.528L7.9035 7.78306L10.373 3.03817L15.3119 3.03817Z" fill="white"/>
    <path d="M15.3993 22.0694L17.8688 26.8143L15.3993 31.5592L10.4604 31.5592L7.9909 26.8143L10.4604 22.0694L15.3993 22.0694Z" fill="white"/>
</svg>
    