<svg width="35" height="32" viewBox="0 0 35 32" fill="none" xmlns="http://www.w3.org/2000/svg">
<path fill-rule="evenodd" clip-rule="evenodd" d="M32.0069 3.50626C27.6451 1.36611 22.6228 0.159546 17.3939 0.159546C12.1479 0.159546 7.13241 1.37414 2.76035 3.52576C1.21085 7.2739 0.357544 11.3627 0.357544 15.6453C0.357544 19.9268 1.21085 24.0132 2.7592 27.7591C7.13241 29.9142 12.1479 31.1253 17.3939 31.1253C22.6228 31.1253 27.6474 29.9187 32.0092 27.7786C33.5644 24.027 34.42 19.9325 34.42 15.6453C34.42 11.3558 33.5621 7.26014 32.0069 3.50626Z" fill="#367C2B"/>
<path fill-rule="evenodd" clip-rule="evenodd" d="M12.7455 12.1323C12.0412 13.5327 11.5527 15.1017 11.3531 16.8909C11.2946 16.8978 10.9368 16.9288 10.9368 16.9288C9.46867 17.0641 7.949 17.1776 6.4775 17.7465L6.58187 18.3429C8.98238 21.3284 12.6204 23.1302 12.6571 23.1451L12.7409 23.0556L11.9552 21.8032C11.7683 21.6621 11.2762 21.5509 11.2613 21.5486C9.62236 21.0015 8.47315 18.8602 8.2839 18.4932C9.63498 18.4886 10.8198 18.8808 11.9667 19.2593C12.7237 19.5093 13.437 19.7445 14.1757 19.866C15.4751 20.0748 16.8331 19.8305 18.0557 19.6779C19.0478 19.5587 20.0101 19.5609 20.97 19.624C21.0847 19.7651 22.0929 20.9854 23.054 21.4878C24.2628 22.122 27.777 23.1703 27.9502 23.2299C28.0225 23.2976 29.3758 24.659 30.2073 26.236C26.27 28.0482 21.8405 29.007 17.3928 29.007C12.9335 29.007 8.4892 28.0413 4.53691 26.2085C3.23286 22.832 2.56994 19.2811 2.56994 15.6431C2.56994 12.0108 3.23401 8.45644 4.5392 5.07761C8.49035 3.24827 12.9335 2.28026 17.3928 2.28026C21.8509 2.28026 26.2906 3.24368 30.2314 5.06155C31.5401 8.44497 32.2041 12.0039 32.2041 15.6431C32.2041 18.9772 31.6502 22.2333 30.5583 25.3346C29.3036 23.1588 28.7955 22.5005 28.7955 22.5005C28.7794 22.489 27.0223 21.5726 26.5877 21.1988C26.2413 20.8983 26.0761 20.2869 25.8846 19.5793C25.6196 18.5975 25.287 17.3841 24.3351 16.3794L25.3926 15.947C25.099 13.9089 22.6847 12.5854 22.6594 12.5705L22.523 12.6347C23.4439 13.7896 23.7135 14.7737 23.7135 15.3735C23.7135 15.6798 23.6653 15.8816 23.6435 15.9665C23.3671 15.8656 21.5836 15.2887 17.5293 15.4412C16.934 15.4607 16.0818 15.4343 15.5726 14.94C15.2847 14.6613 15.1402 14.261 15.1402 13.7472C15.1402 13.7449 15.1402 13.7449 15.1402 13.7426C15.1425 12.3365 15.7355 10.4406 15.8203 10.1745L16.879 10.303C18.1371 9.60221 18.6303 9.00008 18.6991 8.90603L18.6406 8.8441C17.5648 8.98287 16.1587 9.26616 16.1587 9.26616C16.2516 9.01958 16.5372 8.20985 16.5372 7.29346C16.5372 6.30481 16.2057 5.19459 14.9475 4.54887L14.8134 4.61425C14.8248 4.62457 15.5462 5.40907 15.5462 6.48603C15.5462 6.78422 15.4889 7.10651 15.3455 7.44026C14.9349 7.26937 14.7652 7.25217 14.2743 7.23841C14.0346 6.39542 13.2983 5.67859 12.2959 5.31617L12.1743 5.38957C12.1858 5.3976 13.2467 6.15227 13.3074 7.26593C12.773 7.30952 12.5459 7.36113 11.8864 7.56299C11.61 7.10078 10.9803 6.77046 10.1889 6.67527L10.0869 6.75441C10.096 6.75899 11.0274 7.08128 11.2372 7.79581C10.6581 8.0619 10.0605 8.4702 9.65218 8.79822L9.69347 8.9542C12.1089 8.01602 14.3672 7.74191 14.943 8.42432C15.0393 8.54016 15.0898 8.6755 15.0898 8.83492C15.0898 9.03678 15.0118 9.26846 14.8592 9.5334C13.6618 9.7949 11.8749 10.3041 10.4046 10.857L10.6007 11.474C10.6007 11.474 12.0791 11.7745 12.6399 11.8915C12.6399 11.8915 12.8498 11.9202 12.7455 12.1323ZM30.9678 4.42271C26.8939 2.50506 22.2328 1.4281 17.3928 1.4281C12.5402 1.4281 7.88707 2.51079 3.80173 4.44106C2.42084 7.92312 1.66846 11.7022 1.66846 15.6522C1.66846 19.5908 2.42084 23.3653 3.7937 26.8428C7.87904 28.7753 12.5356 29.8603 17.3928 29.8603C22.2351 29.8603 26.9008 28.7822 30.9769 26.8611C32.3521 23.3802 33.1068 19.5988 33.1068 15.6522C33.1068 11.6954 32.3486 7.91165 30.9678 4.42271Z" fill="#FFDE00"/>
</svg>
