<?xml version="1.0" encoding="UTF-8" standalone="no"?>
<!DOCTYPE svg PUBLIC "-//W3C//DTD SVG 1.1//EN" "http://www.w3.org/Graphics/SVG/1.1/DTD/svg11.dtd">
<svg xmlns="http://www.w3.org/2000/svg" version="1.1" viewBox="0.00 0.00 72.00 65.00">
<g stroke-width="2.00" fill="none" stroke-linecap="butt">
<path stroke="#5b9f82" vector-effect="non-scaling-stroke" d="
  M 51.16 14.47
  Q 50.72 18.83 47.18 20.81
  A 1.14 1.14 0.0 0 1 45.59 19.34
  Q 46.03 18.40 46.09 17.49
  A 0.76 0.76 0.0 0 1 46.61 16.83
  Q 47.38 16.57 47.84 15.87
  Q 48.21 15.30 47.60 15.61
  C 45.18 16.86 43.40 19.73 40.73 20.12
  Q 37.78 20.55 40.63 21.41
  Q 41.52 21.68 41.98 21.65
  Q 44.41 21.51 42.55 23.06
  C 40.37 24.88 35.75 24.64 34.06 22.15
  Q 33.73 21.67 34.24 21.37
  Q 34.83 21.03 35.33 20.59
  Q 37.16 19.01 34.77 19.41
  Q 32.07 19.87 29.84 18.38
  Q 29.42 18.09 28.91 18.00
  Q 27.70 17.79 26.79 16.83
  Q 25.95 15.93 26.42 17.07
  Q 26.78 17.95 27.87 18.05
  Q 28.37 18.10 28.57 18.56
  L 29.17 19.96
  Q 29.44 20.60 28.79 20.82
  Q 22.19 23.08 21.60 16.38"
/>
<path stroke="#436c54" vector-effect="non-scaling-stroke" d="
  M 54.19 19.46
  Q 55.01 28.77 46.96 27.57
  Q 46.45 27.49 46.08 27.13
  Q 44.70 25.77 42.75 25.69
  A 0.37 0.37 0.0 0 0 42.56 26.38
  L 43.93 27.14
  A 1.48 1.47 -46.4 0 1 43.99 29.67
  Q 41.10 31.50 37.97 30.15
  A 0.72 0.72 0.0 0 1 37.72 29.01
  L 38.66 27.93
  A 0.43 0.43 0.0 0 0 38.22 27.23
  Q 36.16 27.81 34.18 27.06
  Q 33.45 26.78 33.62 27.54
  Q 33.69 27.83 34.03 27.94
  Q 34.51 28.09 34.53 28.59
  Q 34.56 29.02 34.40 29.45
  Q 34.22 29.94 33.73 29.76
  L 30.64 28.65
  A 1.90 1.89 35.5 0 0 28.83 28.95
  Q 27.26 30.18 25.26 30.07
  A 1.89 1.88 -2.9 0 1 23.51 28.49
  Q 23.35 27.44 24.34 27.08
  Q 24.84 26.90 25.72 27.18
  C 28.15 27.94 30.74 25.05 32.72 23.81
  Q 32.88 23.71 32.88 23.52
  Q 32.88 23.37 32.88 23.21
  A 0.17 0.17 0.0 0 0 32.68 23.04
  Q 29.76 23.70 27.20 25.28
  A 1.03 1.03 0.0 0 1 26.15 25.30
  L 24.47 24.38
  Q 23.97 24.11 23.44 24.29
  L 20.48 25.29
  A 0.68 0.67 -24.9 0 1 19.68 25.00
  L 19.15 24.10
  Q 18.86 23.61 18.30 23.74
  Q 16.19 24.21 13.90 23.50"
/>
<path stroke="#70664c" vector-effect="non-scaling-stroke" d="
  M 44.51 41.99
  L 40.58 39.28"
/>
<path stroke="#70664c" vector-effect="non-scaling-stroke" d="
  M 34.84 34.76
  L 32.84 35.41
  Q 32.36 35.57 32.51 36.04
  C 33.22 38.17 34.70 38.96 36.31 40.30
  C 38.74 42.31 39.00 45.56 37.08 47.94
  C 35.83 49.50 33.37 50.38 31.75 52.15"
/>
<path stroke="#655e45" vector-effect="non-scaling-stroke" d="
  M 31.75 52.15
  Q 29.82 53.77 29.86 56.05
  A 0.97 0.95 16.8 0 0 30.28 56.82
  Q 30.83 57.18 31.43 56.84
  Q 31.83 56.62 32.07 56.22
  L 32.34 55.78
  A 0.36 0.36 0.0 0 1 32.97 55.80
  C 34.14 58.20 38.51 57.43 38.77 55.23"
/>
<path stroke="#655e45" vector-effect="non-scaling-stroke" d="
  M 26.16 40.68
  Q 27.42 40.17 29.01 40.33
  Q 30.27 40.45 30.56 38.90"
/>
<path stroke="#655e45" vector-effect="non-scaling-stroke" d="
  M 23.99 37.17
  Q 23.20 37.09 23.53 39.32"
/>
<path stroke="#957457" vector-effect="non-scaling-stroke" d="
  M 45.28 44.19
  Q 44.63 45.21 43.89 45.50
  Q 43.44 45.68 43.30 46.14
  Q 42.74 48.04 41.21 49.37
  A 0.84 0.83 -35.1 0 1 39.94 49.15
  Q 39.70 48.74 39.27 48.71
  A 0.54 0.53 -72.6 0 0 38.76 48.98
  C 37.16 51.80 34.86 51.82 32.31 53.36
  A 0.42 0.41 -27.7 0 1 31.71 53.18
  Q 31.56 52.84 31.75 52.15"
/>
</g>
<path fill="#6fb596" d="
  M 51.16 14.47
  Q 50.72 18.83 47.18 20.81
  A 1.14 1.14 0.0 0 1 45.59 19.34
  Q 46.03 18.40 46.09 17.49
  A 0.76 0.76 0.0 0 1 46.61 16.83
  Q 47.38 16.57 47.84 15.87
  Q 48.21 15.30 47.60 15.61
  C 45.18 16.86 43.40 19.73 40.73 20.12
  Q 37.78 20.55 40.63 21.41
  Q 41.52 21.68 41.98 21.65
  Q 44.41 21.51 42.55 23.06
  C 40.37 24.88 35.75 24.64 34.06 22.15
  Q 33.73 21.67 34.24 21.37
  Q 34.83 21.03 35.33 20.59
  Q 37.16 19.01 34.77 19.41
  Q 32.07 19.87 29.84 18.38
  Q 29.42 18.09 28.91 18.00
  Q 27.70 17.79 26.79 16.83
  Q 25.95 15.93 26.42 17.07
  Q 26.78 17.95 27.87 18.05
  Q 28.37 18.10 28.57 18.56
  L 29.17 19.96
  Q 29.44 20.60 28.79 20.82
  Q 22.19 23.08 21.60 16.38
  Q 23.19 15.48 24.67 13.85
  C 26.05 12.31 27.00 11.94 28.94 12.13
  Q 29.47 12.19 29.90 11.86
  Q 36.44 6.93 41.74 12.99
  Q 42.11 13.41 42.65 13.29
  Q 45.89 12.58 46.98 12.73
  Q 49.78 13.12 51.16 14.47
  Z"
/>
<path fill="#47886d" d="
  M 51.16 14.47
  L 54.19 19.46
  Q 55.01 28.77 46.96 27.57
  Q 46.45 27.49 46.08 27.13
  Q 44.70 25.77 42.75 25.69
  A 0.37 0.37 0.0 0 0 42.56 26.38
  L 43.93 27.14
  A 1.48 1.47 -46.4 0 1 43.99 29.67
  Q 41.10 31.50 37.97 30.15
  A 0.72 0.72 0.0 0 1 37.72 29.01
  L 38.66 27.93
  A 0.43 0.43 0.0 0 0 38.22 27.23
  Q 36.16 27.81 34.18 27.06
  Q 33.45 26.78 33.62 27.54
  Q 33.69 27.83 34.03 27.94
  Q 34.51 28.09 34.53 28.59
  Q 34.56 29.02 34.40 29.45
  Q 34.22 29.94 33.73 29.76
  L 30.64 28.65
  A 1.90 1.89 35.5 0 0 28.83 28.95
  Q 27.26 30.18 25.26 30.07
  A 1.89 1.88 -2.9 0 1 23.51 28.49
  Q 23.35 27.44 24.34 27.08
  Q 24.84 26.90 25.72 27.18
  C 28.15 27.94 30.74 25.05 32.72 23.81
  Q 32.88 23.71 32.88 23.52
  Q 32.88 23.37 32.88 23.21
  A 0.17 0.17 0.0 0 0 32.68 23.04
  Q 29.76 23.70 27.20 25.28
  A 1.03 1.03 0.0 0 1 26.15 25.30
  L 24.47 24.38
  Q 23.97 24.11 23.44 24.29
  L 20.48 25.29
  A 0.68 0.67 -24.9 0 1 19.68 25.00
  L 19.15 24.10
  Q 18.86 23.61 18.30 23.74
  Q 16.19 24.21 13.90 23.50
  Q 13.28 17.65 21.60 16.38
  Q 22.19 23.08 28.79 20.82
  Q 29.44 20.60 29.17 19.96
  L 28.57 18.56
  Q 28.37 18.10 27.87 18.05
  Q 26.78 17.95 26.42 17.07
  Q 25.95 15.93 26.79 16.83
  Q 27.70 17.79 28.91 18.00
  Q 29.42 18.09 29.84 18.38
  Q 32.07 19.87 34.77 19.41
  Q 37.16 19.01 35.33 20.59
  Q 34.83 21.03 34.24 21.37
  Q 33.73 21.67 34.06 22.15
  C 35.75 24.64 40.37 24.88 42.55 23.06
  Q 44.41 21.51 41.98 21.65
  Q 41.52 21.68 40.63 21.41
  Q 37.78 20.55 40.73 20.12
  C 43.40 19.73 45.18 16.86 47.60 15.61
  Q 48.21 15.30 47.84 15.87
  Q 47.38 16.57 46.61 16.83
  A 0.76 0.76 0.0 0 0 46.09 17.49
  Q 46.03 18.40 45.59 19.34
  A 1.14 1.14 0.0 0 0 47.18 20.81
  Q 50.72 18.83 51.16 14.47
  Z"
/>
<path fill="#3f4f3a" d="
  M 54.19 19.46
  C 57.28 20.88 62.99 22.86 59.08 27.38
  Q 58.77 27.74 58.88 28.21
  C 59.91 32.54 54.51 34.14 51.26 33.87
  Q 50.73 33.83 50.72 34.36
  C 50.61 38.82 47.15 39.66 44.51 41.99
  L 40.58 39.28
  C 44.66 39.71 49.09 38.95 49.45 34.30
  Q 49.48 33.85 49.07 33.66
  C 44.38 31.54 40.82 34.89 35.57 32.21
  Q 35.06 31.95 34.82 32.46
  Q 34.35 33.47 34.84 34.76
  L 32.84 35.41
  Q 32.36 35.57 32.51 36.04
  C 33.22 38.17 34.70 38.96 36.31 40.30
  C 38.74 42.31 39.00 45.56 37.08 47.94
  C 35.83 49.50 33.37 50.38 31.75 52.15
  Q 29.82 53.77 29.86 56.05
  A 0.97 0.95 16.8 0 0 30.28 56.82
  Q 30.83 57.18 31.43 56.84
  Q 31.83 56.62 32.07 56.22
  L 32.34 55.78
  A 0.36 0.36 0.0 0 1 32.97 55.80
  C 34.14 58.20 38.51 57.43 38.77 55.23
  C 40.72 55.50 40.76 57.17 42.75 57.99
  Q 43.06 58.11 43.16 58.44
  Q 43.31 58.92 42.80 58.92
  L 25.50 58.96
  Q 24.61 58.96 25.28 58.37
  C 27.36 56.55 27.41 53.68 28.90 51.83
  Q 30.78 49.51 33.91 48.17
  C 37.57 46.60 37.94 42.50 34.34 40.54
  A 1.23 1.20 50.1 0 0 33.43 40.45
  Q 29.76 41.54 26.16 40.68
  Q 27.42 40.17 29.01 40.33
  Q 30.27 40.45 30.56 38.90
  Q 31.07 38.87 31.39 38.70
  Q 31.93 38.41 31.60 37.89
  Q 30.14 35.55 30.04 32.79
  Q 30.02 32.29 29.56 32.48
  Q 26.15 33.83 22.74 32.52
  A 0.32 0.31 12.4 0 0 22.31 32.79
  Q 22.11 35.41 23.99 37.17
  Q 23.20 37.09 23.53 39.32
  Q 21.05 37.37 20.58 33.26
  Q 20.53 32.86 20.17 33.04
  C 17.55 34.33 10.85 35.90 13.12 29.86
  Q 13.27 29.43 12.97 29.10
  Q 10.69 26.59 13.90 23.50
  Q 16.19 24.21 18.30 23.74
  Q 18.86 23.61 19.15 24.10
  L 19.68 25.00
  A 0.68 0.67 -24.9 0 0 20.48 25.29
  L 23.44 24.29
  Q 23.97 24.11 24.47 24.38
  L 26.15 25.30
  A 1.03 1.03 0.0 0 0 27.20 25.28
  Q 29.76 23.70 32.68 23.04
  A 0.17 0.17 0.0 0 1 32.88 23.21
  Q 32.88 23.37 32.88 23.52
  Q 32.88 23.71 32.72 23.81
  C 30.74 25.05 28.15 27.94 25.72 27.18
  Q 24.84 26.90 24.34 27.08
  Q 23.35 27.44 23.51 28.49
  A 1.89 1.88 -2.9 0 0 25.26 30.07
  Q 27.26 30.18 28.83 28.95
  A 1.90 1.89 35.5 0 1 30.64 28.65
  L 33.73 29.76
  Q 34.22 29.94 34.40 29.45
  Q 34.56 29.02 34.53 28.59
  Q 34.51 28.09 34.03 27.94
  Q 33.69 27.83 33.62 27.54
  Q 33.45 26.78 34.18 27.06
  Q 36.16 27.81 38.22 27.23
  A 0.43 0.43 0.0 0 1 38.66 27.93
  L 37.72 29.01
  A 0.72 0.72 0.0 0 0 37.97 30.15
  Q 41.10 31.50 43.99 29.67
  A 1.48 1.47 -46.4 0 0 43.93 27.14
  L 42.56 26.38
  A 0.37 0.37 0.0 0 1 42.75 25.69
  Q 44.70 25.77 46.08 27.13
  Q 46.45 27.49 46.96 27.57
  Q 55.01 28.77 54.19 19.46
  Z"
/>
<path fill="#a07c5d" d="
  M 34.84 34.76
  Q 36.91 38.01 40.58 39.28
  L 44.51 41.99
  Q 44.21 43.15 45.28 44.19
  Q 44.63 45.21 43.89 45.50
  Q 43.44 45.68 43.30 46.14
  Q 42.74 48.04 41.21 49.37
  A 0.84 0.83 -35.1 0 1 39.94 49.15
  Q 39.70 48.74 39.27 48.71
  A 0.54 0.53 -72.6 0 0 38.76 48.98
  C 37.16 51.80 34.86 51.82 32.31 53.36
  A 0.42 0.41 -27.7 0 1 31.71 53.18
  Q 31.56 52.84 31.75 52.15
  C 33.37 50.38 35.83 49.50 37.08 47.94
  C 39.00 45.56 38.74 42.31 36.31 40.30
  C 34.70 38.96 33.22 38.17 32.51 36.04
  Q 32.36 35.57 32.84 35.41
  L 34.84 34.76
  Z"
/>
<path fill="#8a6c50" d="
  M 23.99 37.17
  Q 26.57 39.50 30.56 38.90
  Q 30.27 40.45 29.01 40.33
  Q 27.42 40.17 26.16 40.68
  L 23.53 39.32
  Q 23.20 37.09 23.99 37.17
  Z"
/>
<path fill="#8a6c50" d="
  M 45.28 44.19
  C 47.06 48.46 44.30 50.03 41.15 51.89
  Q 38.64 53.37 38.77 55.23
  C 38.51 57.43 34.14 58.20 32.97 55.80
  A 0.36 0.36 0.0 0 0 32.34 55.78
  L 32.07 56.22
  Q 31.83 56.62 31.43 56.84
  Q 30.83 57.18 30.28 56.82
  A 0.97 0.95 16.8 0 1 29.86 56.05
  Q 29.82 53.77 31.75 52.15
  Q 31.56 52.84 31.71 53.18
  A 0.42 0.41 -27.7 0 0 32.31 53.36
  C 34.86 51.82 37.16 51.80 38.76 48.98
  A 0.54 0.53 -72.6 0 1 39.27 48.71
  Q 39.70 48.74 39.94 49.15
  A 0.84 0.83 -35.1 0 0 41.21 49.37
  Q 42.74 48.04 43.30 46.14
  Q 43.44 45.68 43.89 45.50
  Q 44.63 45.21 45.28 44.19
  Z"
/>
</svg>
